<svg width="18" height="18" viewBox="0 0 18 18" fill="none" xmlns="http://www.w3.org/2000/svg">
<path fill-rule="evenodd" clip-rule="evenodd" d="M5.47154 15.4348C5.83024 15.4348 6.12179 15.7264 6.12179 16.0851C6.12179 16.4438 5.83024 16.7345 5.47154 16.7345C5.11284 16.7345 4.82214 16.4438 4.82214 16.0851C4.82214 15.7264 5.11284 15.4348 5.47154 15.4348Z" stroke="white" stroke-width="1.5" stroke-linecap="round" stroke-linejoin="round"/>
<path fill-rule="evenodd" clip-rule="evenodd" d="M15.0361 15.4348C15.3948 15.4348 15.6863 15.7264 15.6863 16.0851C15.6863 16.4438 15.3948 16.7345 15.0361 16.7345C14.6774 16.7345 14.3858 16.4438 14.3858 16.0851C14.3858 15.7264 14.6774 15.4348 15.0361 15.4348Z" stroke="white" stroke-width="1.5" stroke-linecap="round" stroke-linejoin="round"/>
<path d="M1.5 1.34998L3.268 1.65598L4.08655 11.408C4.15285 12.2028 4.8167 12.8131 5.614 12.8131H14.8892C15.6508 12.8131 16.2968 12.2538 16.4064 11.499L17.2131 5.92468C17.3126 5.23703 16.7796 4.62163 16.0851 4.62163H3.5519" stroke="white" stroke-width="1.5" stroke-linecap="round" stroke-linejoin="round"/>
<path d="M11.1692 7.76318H13.5262" stroke="white" stroke-width="1.5" stroke-linecap="round" stroke-linejoin="round"/>
</svg>
