<svg width="15" height="15" viewBox="0 0 15 15" fill="none" xmlns="http://www.w3.org/2000/svg">
<path d="M2.19727 2.19727L1.20117 1.20117C0.758789 0.758789 0 1.07227 0 1.69629V4.92188C0 5.31152 0.313477 5.625 0.703125 5.625H3.92871C4.55566 5.625 4.86914 4.86621 4.42676 4.42383L3.52441 3.52148C4.54102 2.50488 5.94727 1.875 7.5 1.875C10.6055 1.875 13.125 4.39453 13.125 7.5C13.125 10.6055 10.6055 13.125 7.5 13.125C6.30469 13.125 5.19727 12.7529 4.28613 12.1172C3.86133 11.8213 3.27832 11.9238 2.97949 12.3486C2.68066 12.7734 2.78613 13.3564 3.21094 13.6553C4.42969 14.502 5.90918 15 7.5 15C11.6426 15 15 11.6426 15 7.5C15 3.35742 11.6426 0 7.5 0C5.42871 0 3.55371 0.84082 2.19727 2.19727ZM7.5 3.75C7.11035 3.75 6.79688 4.06348 6.79688 4.45312V7.5C6.79688 7.6875 6.87012 7.86621 7.00195 7.99805L9.11133 10.1074C9.38672 10.3828 9.83203 10.3828 10.1045 10.1074C10.377 9.83203 10.3799 9.38672 10.1045 9.11426L8.2002 7.20996V4.45312C8.2002 4.06348 7.88672 3.75 7.49707 3.75H7.5Z" fill="black"/>
</svg>
