<svg width="10" height="10" viewBox="0 0 10 10" fill="none" xmlns="http://www.w3.org/2000/svg">
<path d="M9.70404 1.60191C10.0945 1.23568 10.0945 0.64091 9.70404 0.274676C9.3136 -0.0915586 8.67952 -0.0915586 8.28908 0.274676L5 3.36277L1.70779 0.277606C1.31735 -0.0886288 0.683273 -0.0886288 0.292831 0.277606C-0.0976105 0.64384 -0.0976105 1.23861 0.292831 1.60484L3.58504 4.69L0.295955 7.77809C-0.094487 8.14432 -0.094487 8.73909 0.295955 9.10532C0.686397 9.47156 1.32047 9.47156 1.71092 9.10532L5 6.01723L8.29221 9.10239C8.68265 9.46863 9.31673 9.46863 9.70717 9.10239C10.0976 8.73616 10.0976 8.14139 9.70717 7.77516L6.41496 4.69L9.70404 1.60191Z" fill="black"/>
</svg>
