<svg width="30" height="24" viewBox="0 0 30 24" fill="none" xmlns="http://www.w3.org/2000/svg">
<path d="M15.0056 6.05509V2.35679L8.75171 0.0693687C8.21727 -0.127499 7.62657 0.111555 7.36873 0.617786L3.36979 8.54406C1.92585 11.4033 2.99474 14.8157 5.62476 16.3906L4.31209 20.0186L1.50861 18.9874C0.927291 18.7765 0.285023 19.0765 0.069371 19.6624C-0.146281 20.2483 0.158445 20.8952 0.739768 21.1061L8.45636 23.9326C9.03769 24.1435 9.67995 23.8435 9.89092 23.2576C10.1019 22.6717 9.80185 22.0248 9.22052 21.8139L6.41236 20.7874L7.72502 17.1641C10.9176 17.7078 14.0868 15.6266 14.7618 12.308L15.0009 11.1455L15.24 12.308C15.9198 15.6266 19.0843 17.7078 22.2769 17.1641L23.5895 20.7874L20.7814 21.8139C20.2 22.0248 19.9 22.6717 20.111 23.2576C20.3219 23.8435 20.9642 24.1435 21.5455 23.9326L29.2621 21.1061C29.8434 20.8952 30.1435 20.2483 29.9325 19.6624C29.7215 19.0765 29.0793 18.7765 28.4979 18.9874L25.6898 20.014L24.3771 16.386C27.0071 14.811 28.0713 11.3986 26.6321 8.53937L22.6425 0.617786C22.3847 0.106867 21.7893 -0.127499 21.2595 0.0693687L15.0056 2.35679V6.05509ZM13.332 8.13626L7.21871 5.89572L8.92048 2.52553L14.0961 4.41921L13.3367 8.13626H13.332ZM16.6746 8.13626L15.9151 4.41921L21.0908 2.52553L22.7925 5.89572L16.6793 8.13626H16.6746Z" fill="#812F51"/>
</svg>
