<svg width="18" height="21" viewBox="0 0 18 21" fill="none" xmlns="http://www.w3.org/2000/svg">
<g clip-path="url(#clip0_46_978)">
<path d="M6.4002 0.221261C6.7136 -0.0781526 7.19976 -0.074051 7.51315 0.225363C8.62208 1.28767 9.6627 2.432 10.635 3.67068C11.077 3.08005 11.5792 2.43611 12.1216 1.91111C12.439 1.60759 12.9292 1.60759 13.2466 1.91521C14.6368 3.26872 15.814 5.057 16.6417 6.75505C17.4573 8.42849 17.9998 10.1388 17.9998 11.3447C17.9998 16.5783 13.9899 20.9998 8.99976 20.9998C3.95333 20.9998 -0.000244141 16.5742 -0.000244141 11.3406C-0.000244141 9.7656 0.714934 7.84196 1.82386 5.93884C2.94485 4.007 4.52788 1.99314 6.4002 0.221261ZM9.06806 17.0623C10.0846 17.0623 10.9846 16.7752 11.8323 16.2009C13.5239 14.9951 13.9779 12.5834 12.9614 10.6884C12.8489 10.4588 12.7364 10.2291 12.5676 9.99939L10.5346 12.4111C10.5346 12.4111 7.26404 8.16189 7.03502 7.87478C5.34752 9.99939 4.49976 11.2052 4.49976 12.5834C4.49976 15.397 6.53279 17.0623 9.06806 17.0623Z" fill="#FF5911"/>
</g>
<defs>
<clipPath id="clip0_46_978">
<rect width="18" height="21" fill="white"/>
</clipPath>
</defs>
</svg>
