<svg width="37" height="36" viewBox="0 0 37 36" fill="none" xmlns="http://www.w3.org/2000/svg">
<path d="M13.5246 4.8375L15.9952 9H15.9029H10.7913C9.22227 9 7.95146 7.74141 7.95146 6.1875C7.95146 4.63359 9.22227 3.375 10.7913 3.375H10.9475C12.0053 3.375 12.9921 3.93047 13.5246 4.8375ZM4.54369 6.1875C4.54369 7.2 4.79217 8.15625 5.22524 9H2.27184C1.01523 9 0 10.0055 0 11.25V15.75C0 16.9945 1.01523 18 2.27184 18H34.0777C35.3343 18 36.3495 16.9945 36.3495 15.75V11.25C36.3495 10.0055 35.3343 9 34.0777 9H31.1243C31.5573 8.15625 31.8058 7.2 31.8058 6.1875C31.8058 2.77031 29.0086 0 25.5583 0H25.4021C23.1373 0 21.0359 1.18828 19.8857 3.12188L18.1748 6.01172L16.4638 3.12891C15.3137 1.18828 13.2122 0 10.9475 0H10.7913C7.3409 0 4.54369 2.77031 4.54369 6.1875ZM28.3981 6.1875C28.3981 7.74141 27.1272 9 25.5583 9H20.4466H20.3543L22.8249 4.8375C23.3645 3.93047 24.3442 3.375 25.4021 3.375H25.5583C27.1272 3.375 28.3981 4.63359 28.3981 6.1875ZM2.27184 20.25V32.625C2.27184 34.4883 3.79824 36 5.67961 36H15.9029V20.25H2.27184ZM20.4466 36H30.6699C32.5513 36 34.0777 34.4883 34.0777 32.625V20.25H20.4466V36Z" fill="#4ABA6F"/>
</svg>
