<svg width="24" height="21" viewBox="0 0 24 21" fill="none" xmlns="http://www.w3.org/2000/svg">
<path d="M11.4375 2.0071L11.9578 2.58264L12.5203 2.00806C14.0906 0.442102 16.2656 -0.270612 18.4031 0.0934188C21.6328 0.644021 24 3.50351 24 6.85604V7.13422C24 9.12464 23.1937 11.0287 21.7687 12.386L13.2984 20.4772C12.9469 20.8129 12.4828 21 12 21C11.5172 21 11.0531 20.8129 10.7016 20.4772L2.23078 12.386C0.807656 11.0287 0 9.12464 0 7.13422V6.85604C0 3.50351 2.36812 0.644021 5.59687 0.0934188C7.69219 -0.270612 9.90937 0.442102 11.4375 2.0071ZM11.9578 5.83925L9.84844 3.59464C8.83125 2.59607 7.3875 2.12221 5.96719 2.36393C3.82266 2.72988 2.25 4.63061 2.25 6.85604V7.13422C2.25 8.48675 2.79891 9.78172 3.76594 10.7026L12 18.5683L20.2359 10.7026C21.2016 9.78172 21.75 8.48675 21.75 7.13422V6.85604C21.75 4.63061 20.175 2.72988 18.0328 2.36393C16.6125 2.12221 15.1687 2.59607 14.1516 3.59464L11.9578 5.83925Z" fill="#434343"/>
</svg>
