<svg width="21" height="19" viewBox="0 0 21 19" fill="none" xmlns="http://www.w3.org/2000/svg">
<path d="M19.8277 10.6727C20.4476 10.6727 20.9945 10.1531 20.9945 9.48145C21.031 9.14746 20.8851 8.85059 20.5934 8.59082L18.6683 6.86523V2.375C18.6683 1.71816 18.1469 1.1875 17.5015 1.1875H16.3347C15.6894 1.1875 15.168 1.71816 15.168 2.375V3.73691L11.2848 0.259766C11.066 0.0742188 10.7744 0 10.5191 0C10.2639 0 9.9722 0.0371094 9.71697 0.296875L0.364614 8.59082C0.109384 8.85059 0 9.14746 0 9.48145C0 10.1494 0.51046 10.6727 1.16677 10.6727H2.33353V13.2592C2.32989 13.2926 2.32989 13.326 2.32989 13.3631V17.5156C2.32989 18.3357 2.98255 19 3.78834 19H4.37173C4.41548 19 4.45923 18.9963 4.50299 18.9926C4.55768 18.9963 4.61237 19 4.66706 19H5.83383H6.7089C7.5147 19 8.16736 18.3357 8.16736 17.5156V16.625V14.25C8.16736 13.5932 8.68876 13.0625 9.33413 13.0625H11.6677C12.313 13.0625 12.8344 13.5932 12.8344 14.25V16.625V17.5156C12.8344 18.3357 13.4871 19 14.2929 19H15.168H16.353C16.404 19 16.455 19 16.5061 18.9963C16.5462 19 16.5863 19 16.6264 19H17.2098C18.0156 19 18.6683 18.3357 18.6683 17.5156V16.9145C18.6792 16.818 18.6865 16.7178 18.6865 16.6139L18.661 10.6689H19.8277V10.6727Z" fill="#4ABA6F"/>
</svg>
