<svg width="31" height="31" viewBox="0 0 31 31" fill="none" xmlns="http://www.w3.org/2000/svg">
<path d="M15.17 8.18428C10.9371 8.18428 7.52281 11.5993 7.52281 15.8332C7.52281 20.067 10.9371 23.4821 15.17 23.4821C19.4029 23.4821 22.8172 20.067 22.8172 15.8332C22.8172 11.5993 19.4029 8.18428 15.17 8.18428ZM15.17 20.8059C12.4346 20.8059 10.1983 18.5758 10.1983 15.8332C10.1983 13.0905 12.4279 10.8604 15.17 10.8604C17.9121 10.8604 20.1417 13.0905 20.1417 15.8332C20.1417 18.5758 17.9054 20.8059 15.17 20.8059V20.8059ZM24.9137 7.8714C24.9137 8.86329 24.115 9.65548 23.13 9.65548C22.1383 9.65548 21.3463 8.85664 21.3463 7.8714C21.3463 6.88616 22.145 6.08732 23.13 6.08732C24.115 6.08732 24.9137 6.88616 24.9137 7.8714ZM29.9785 9.6821C29.8654 7.29224 29.3196 5.17532 27.5692 3.43118C25.8255 1.68705 23.709 1.14118 21.3197 1.02135C18.8571 0.881555 11.4762 0.881555 9.01364 1.02135C6.63097 1.13452 4.51452 1.68039 2.76412 3.42453C1.01372 5.16866 0.474623 7.28558 0.354824 9.67545C0.215059 12.1385 0.215059 19.5211 0.354824 21.9842C0.467968 24.3741 1.01372 26.491 2.76412 28.2351C4.51452 29.9793 6.62432 30.5252 9.01364 30.645C11.4762 30.7848 18.8571 30.7848 21.3197 30.645C23.709 30.5318 25.8255 29.9859 27.5692 28.2351C29.313 26.491 29.8587 24.3741 29.9785 21.9842C30.1183 19.5211 30.1183 12.1452 29.9785 9.6821V9.6821ZM26.7972 24.6271C26.278 25.9318 25.2731 26.937 23.9619 27.4629C21.9985 28.2418 17.3397 28.0621 15.17 28.0621C13.0003 28.0621 8.33478 28.2351 6.37806 27.4629C5.07358 26.9437 4.0686 25.9385 3.54281 24.6271C2.76412 22.6632 2.94382 18.0033 2.94382 15.8332C2.94382 13.663 2.77077 8.99643 3.54281 7.03928C4.06194 5.7345 5.06693 4.7293 6.37806 4.2034C8.34144 3.42453 13.0003 3.60427 15.17 3.60427C17.3397 3.60427 22.0052 3.43118 23.9619 4.2034C25.2664 4.72264 26.2714 5.72785 26.7972 7.03928C27.5759 9.00309 27.3962 13.663 27.3962 15.8332C27.3962 18.0033 27.5759 22.6699 26.7972 24.6271Z" fill="#434343"/>
</svg>
