<svg width="27" height="21" viewBox="0 0 27 21" fill="none" xmlns="http://www.w3.org/2000/svg">
<path d="M19.5623 20.7531C19.9758 20.388 20.0138 19.7564 19.6509 19.3462L17.8748 17.3363V15.0926C17.8748 14.867 17.7989 14.6496 17.6597 14.4733L14.85 10.9252V10.9129L20.4778 15.9089C22.8825 18.3618 27 16.6226 27 13.1525C27 11.1877 25.5656 9.53062 23.6503 9.28862L17.1956 8.30829L18.9169 6.63066C19.2459 6.31073 19.3134 5.80621 19.0814 5.40833L18.0773 3.69789L19.6889 1.61008C20.0264 1.17529 19.9463 0.547722 19.5075 0.211376C19.0688 -0.12497 18.4444 -0.0470359 18.1069 0.391855L16.0819 3.01289C15.833 3.33693 15.8034 3.77582 16.0102 4.12858L16.9678 5.74468L14.85 7.80788V6.241C14.85 5.62983 14.4197 5.11711 13.8375 4.96944V2.62322C13.8375 2.44275 13.6856 2.29508 13.5 2.29508C13.3144 2.29508 13.1625 2.44275 13.1625 2.62322V4.96944C12.5803 5.11711 12.15 5.62983 12.15 6.241V7.80377L10.0322 5.74468L10.9856 4.12448C11.1923 3.77172 11.1628 3.33283 10.9139 3.00879L8.88891 0.387753C8.55141 -0.047036 7.92703 -0.129072 7.48828 0.207274C7.04953 0.543621 6.97359 1.17119 7.30688 1.60598L8.91844 3.69379L7.91016 5.40423C7.67812 5.8021 7.74563 6.30662 8.07469 6.62656L9.79594 8.30419L3.34125 9.28452C1.43437 9.53062 0 11.1877 0 13.1525C0 16.6226 4.1175 18.3618 6.52219 15.9048L12.15 10.9129V10.9252L9.34453 14.4692C9.20531 14.6455 9.12937 14.8629 9.12937 15.0885V17.3322L7.35328 19.3421C6.99047 19.7564 7.02844 20.388 7.44187 20.749C7.85531 21.11 8.48391 21.073 8.85094 20.6629L10.8759 18.37C11.0363 18.1895 11.1248 17.9516 11.1248 17.7096V15.4372L12.15 14.141V16.7292C12.15 17.4553 12.7533 18.0418 13.5 18.0418C14.2467 18.0418 14.85 17.4553 14.85 16.7292V14.141L15.8752 15.4372V17.7096C15.8752 17.9516 15.9638 18.1895 16.1241 18.37L18.1491 20.6629C18.5119 21.0771 19.1447 21.1141 19.5581 20.749L19.5623 20.7531Z" fill="#205072"/>
</svg>
