<svg width="27" height="28" viewBox="0 0 27 28" fill="none" xmlns="http://www.w3.org/2000/svg">
<g clip-path="url(#clip0_137_500)">
<path d="M26.9872 14.2619C26.9872 13.1148 26.8954 12.2777 26.6966 11.4095H13.769V16.5872H21.3572C21.2043 17.8739 20.3781 19.8117 18.5422 21.1138L18.5165 21.2871L22.6039 24.4957L22.8871 24.5243C25.4879 22.0905 26.9872 18.5095 26.9872 14.2619Z" fill="#4285F4"/>
<path d="M13.769 27.9038C17.4866 27.9038 20.6075 26.6636 22.8871 24.5244L18.5422 21.1138C17.3796 21.9354 15.819 22.509 13.769 22.509C10.1279 22.509 7.03761 20.0753 5.93598 16.7113L5.77451 16.7252L1.52433 20.0582L1.46875 20.2147C3.73295 24.7723 8.38381 27.9038 13.769 27.9038Z" fill="#34A853"/>
<path d="M5.93589 16.7113C5.64522 15.8432 5.47699 14.913 5.47699 13.9519C5.47699 12.9907 5.64522 12.0607 5.92059 11.1925L5.91289 11.0077L1.60945 7.62115L1.46865 7.68902C0.535465 9.5803 0 11.7041 0 13.9519C0 16.1997 0.535465 18.3235 1.46865 20.2147L5.93589 16.7113Z" fill="#FBBC05"/>
<path d="M13.769 5.3947C16.3545 5.3947 18.0985 6.52635 19.093 7.47205L22.9789 3.6275C20.5923 1.37969 17.4866 0 13.769 0C8.38381 0 3.73295 3.1314 1.46875 7.68899L5.92069 11.1925C7.03761 7.82857 10.1279 5.3947 13.769 5.3947Z" fill="#EB4335"/>
</g>
<defs>
<clipPath id="clip0_137_500">
<rect width="27" height="28" fill="white"/>
</clipPath>
</defs>
</svg>
