<svg width="42" height="26" viewBox="0 0 42 26" fill="none" xmlns="http://www.w3.org/2000/svg">
<g clip-path="url(#clip0_43_577)">
<path d="M14.7604 2.70728H27.245V23.2907H14.7604V2.70728Z" fill="#FF5F00"/>
<path d="M16.0463 13.0008C16.0448 11.0188 16.4899 9.0624 17.3479 7.27968C18.206 5.49696 19.4545 3.93461 20.9991 2.71089C19.0861 1.19329 16.7888 0.249593 14.3696 -0.012362C11.9505 -0.274317 9.50709 0.156045 7.31878 1.22954C5.13046 2.30303 3.28548 3.97634 1.9947 6.05822C0.703917 8.14011 0.0194092 10.5466 0.0194092 13.0026C0.0194092 15.4586 0.703917 17.8651 1.9947 19.947C3.28548 22.0288 5.13046 23.7022 7.31878 24.7756C9.50709 25.8491 11.9505 26.2795 14.3696 26.0175C16.7888 25.7556 19.0861 24.8119 20.9991 23.2943C19.4541 22.0702 18.2052 20.5073 17.3472 18.7239C16.4891 16.9405 16.0442 14.9834 16.0463 13.0007V13.0008Z" fill="#EB001B"/>
<path d="M40.7415 21.1128V20.6911H40.9216V20.6038H40.493V20.6911H40.6623V21.1128L40.7415 21.1128ZM41.5736 21.1128V20.6038H41.4439L41.2927 20.9674L41.1413 20.6038H41.0117V21.1128H41.1054V20.7274L41.2459 21.0583H41.3431L41.4836 20.7274V21.1128H41.5736Z" fill="#F79E1B"/>
<path d="M41.9806 13.0009C41.9806 15.4571 41.2959 17.8637 40.0049 19.9456C38.7139 22.0276 36.8686 23.7009 34.68 24.7742C32.4914 25.8476 30.0478 26.2776 27.6285 26.0153C25.2092 25.753 22.9118 24.8088 20.999 23.2907C22.5429 22.0659 23.7911 20.5031 24.6494 18.7203C25.5077 16.9375 25.9536 14.9812 25.9536 12.999C25.9536 11.0168 25.5077 9.06052 24.6494 7.2777C23.7911 5.49489 22.5429 3.93212 20.999 2.70731C22.9119 1.18923 25.2092 0.245054 27.6285 -0.0172824C30.0478 -0.279619 32.4914 0.150466 34.68 1.22381C36.8686 2.29715 38.7139 3.97044 40.0049 6.05241C41.2959 8.13438 41.9806 10.541 41.9806 12.9972V13.0009Z" fill="#F79E1B"/>
</g>
<defs>
<clipPath id="clip0_43_577">
<rect width="42" height="26" rx="13" fill="white"/>
</clipPath>
</defs>
</svg>
