<svg width="19" height="17" viewBox="0 0 19 17" fill="none" xmlns="http://www.w3.org/2000/svg">
<path d="M8.40494 2.30942C8.93572 3.93749 8.3938 5.58074 7.19491 5.98302C5.99601 6.38529 4.59296 5.39099 4.06218 3.76292C3.5314 2.13485 4.07332 0.491603 5.27221 0.0893291C6.47111 -0.312945 7.87416 0.681354 8.40494 2.30942ZM3.72441 6.32078C4.42593 7.55037 4.25519 8.98109 3.34581 9.5124C2.43643 10.0437 1.12989 9.47824 0.432083 8.24865C-0.265728 7.01906 -0.102411 5.58833 0.80697 5.05703C1.71635 4.52572 3.02289 5.09118 3.7207 6.32078H3.72441ZM2.56634 14.0095C4.5113 8.64713 7.96695 7.28471 9.49991 7.28471C11.0329 7.28471 14.4885 8.64713 16.4335 14.0095C16.5671 14.3776 16.6265 14.7723 16.6265 15.167V15.2277C16.6265 16.2068 15.8507 17 14.8931 17C14.4662 17 14.0431 16.9469 13.6311 16.8406L10.3647 16.0057C9.79685 15.8615 9.20297 15.8615 8.63507 16.0057L5.36872 16.8406C4.95672 16.9469 4.53358 17 4.10672 17C3.14909 17 2.37333 16.2068 2.37333 15.2277V15.167C2.37333 14.7723 2.43272 14.3776 2.56634 14.0095ZM15.654 9.5124C14.7446 8.98109 14.5739 7.55037 15.2754 6.32078C15.9769 5.09118 17.2798 4.52572 18.1891 5.05703C19.0985 5.58833 19.2693 7.01906 18.5677 8.24865C17.8662 9.47824 16.5634 10.0437 15.654 9.5124ZM11.508 5.98302C10.3091 5.58074 9.76715 3.93749 10.2979 2.30942C10.8287 0.681354 12.2318 -0.312945 13.4307 0.0893291C14.6296 0.491603 15.1715 2.13485 14.6407 3.76292C14.1099 5.39099 12.7069 6.38529 11.508 5.98302Z" fill="#7B3829"/>
</svg>
