<svg width="21" height="18" viewBox="0 0 21 18" fill="none" xmlns="http://www.w3.org/2000/svg">
<path d="M0 2.24956C0 1.00879 1.04654 0 2.33374 0H8.16808V4.49912C8.16808 5.12127 8.68953 5.6239 9.33495 5.6239H14.0024V10.0422L10.8373 13.0931C10.4617 13.4552 10.1992 13.9051 10.0715 14.4007L9.38965 17.0334C9.30578 17.3568 9.32401 17.6942 9.43705 18H2.33374C1.04654 18 0 16.9912 0 15.7504V2.24956ZM14.0024 4.49912H9.33495V0L14.0024 4.49912ZM20.0483 8.28471L20.5734 8.79086C21.1422 9.33919 21.1422 10.2285 20.5734 10.7803L19.5013 11.8137L16.9123 9.3181L17.9844 8.28471C18.5532 7.73638 19.4758 7.73638 20.0483 8.28471ZM11.3733 14.6573L16.0846 10.116L18.6736 12.6116L13.9623 17.1494C13.8128 17.2935 13.6268 17.3954 13.419 17.4446L11.2275 17.9719C11.0269 18.0211 10.8191 17.9649 10.6732 17.8243C10.5273 17.6837 10.469 17.4833 10.5201 17.29L11.067 15.1775C11.1181 14.9807 11.2238 14.7979 11.3733 14.6538V14.6573Z" fill="#4ABA6F"/>
</svg>
