<svg width="20" height="20" viewBox="0 0 20 20" fill="none" xmlns="http://www.w3.org/2000/svg">
<path d="M12.5 3.75H7.5L5.64844 0.972656C5.37109 0.554688 5.66797 0 6.16797 0H13.832C14.332 0 14.6289 0.554688 14.3516 0.972656L12.5 3.75ZM7.5 5H12.5C12.6484 5.09766 12.8164 5.20703 13.0078 5.32812C15.2227 6.74609 20 9.80078 20 16.25C20 18.3203 18.3203 20 16.25 20H3.75C1.67969 20 0 18.3203 0 16.25C0 9.80078 4.77734 6.74609 6.99219 5.32812C7.17969 5.20703 7.35156 5.09766 7.5 5ZM10.7852 8.75C10.7852 8.31641 10.4336 7.96484 10 7.96484C9.56641 7.96484 9.21484 8.31641 9.21484 8.75V8.98437C8.99609 9.03125 8.78906 9.09766 8.59375 9.18359C8.00781 9.44922 7.50391 9.94141 7.37891 10.6562C7.30859 11.0547 7.34766 11.4375 7.51172 11.7891C7.67578 12.1328 7.92969 12.375 8.1875 12.5508C8.64062 12.8594 9.23828 13.0391 9.69531 13.1758L9.78125 13.2031C10.3242 13.3672 10.6953 13.4922 10.9258 13.6602C11.0234 13.7305 11.0586 13.7852 11.0742 13.8203C11.0859 13.8516 11.1094 13.9219 11.082 14.082C11.0586 14.2188 10.9844 14.332 10.7695 14.4258C10.5313 14.5273 10.1445 14.5781 9.64453 14.5C9.41016 14.4609 8.99219 14.3203 8.62109 14.1914C8.53516 14.1602 8.45312 14.1328 8.375 14.1094C7.96484 13.9727 7.52344 14.1953 7.38672 14.6055C7.25 15.0156 7.47266 15.457 7.88281 15.5938C7.92969 15.6094 7.98828 15.6289 8.05469 15.6523C8.36328 15.7578 8.84766 15.9219 9.21875 16.0078V16.25C9.21875 16.6836 9.57031 17.0352 10.0039 17.0352C10.4375 17.0352 10.7891 16.6836 10.7891 16.25V16.0352C11 15.9961 11.1992 15.9375 11.3906 15.8555C12.0039 15.5937 12.5 15.0859 12.625 14.3438C12.6953 13.9375 12.6641 13.5508 12.5078 13.1953C12.3555 12.8438 12.1094 12.5859 11.8477 12.3945C11.3711 12.0508 10.7422 11.8594 10.2695 11.7148L10.2383 11.707C9.68359 11.5391 9.30859 11.4219 9.07031 11.2617C8.96875 11.1914 8.9375 11.1445 8.92969 11.125C8.92188 11.1133 8.90234 11.0625 8.92578 10.9297C8.9375 10.8555 9 10.7266 9.24609 10.6133C9.49609 10.5 9.88672 10.4375 10.3633 10.5117C10.5313 10.5391 11.0625 10.6406 11.2109 10.6797C11.6289 10.7891 12.0547 10.543 12.168 10.125C12.2813 9.70703 12.0312 9.28125 11.6133 9.16797C11.4414 9.12109 11.0508 9.04297 10.793 8.99609V8.75H10.7852Z" fill="#4ABA6F"/>
</svg>
