<svg width="21" height="18" viewBox="0 0 21 18" fill="none" xmlns="http://www.w3.org/2000/svg">
<path d="M5.39589 2.69297C5.39589 1.20586 6.64643 0 8.18863 0C8.92874 0 9.63969 0.284766 10.161 0.7875L10.5001 1.11445L10.8392 0.7875C11.3605 0.284766 12.0715 0 12.8116 0C14.3538 0 15.6043 1.20586 15.6043 2.69297C15.6043 3.40664 15.309 4.09219 14.7877 4.59492L11.0142 8.23008C10.7298 8.5043 10.2668 8.5043 9.9824 8.23008L6.21257 4.59492C5.69121 4.09219 5.39589 3.40664 5.39589 2.69297ZM20.7159 11.823C21.1935 12.4488 21.0549 13.3277 20.406 13.7883L15.7903 17.0684C14.9371 17.673 13.909 18 12.8481 18H7.00008H1.16668C0.52136 18 0 17.4973 0 16.875V14.625C0 14.0027 0.52136 13.5 1.16668 13.5H2.50836L4.14536 12.2344C4.97297 11.5945 6.00111 11.25 7.06206 11.25H9.91677H10.5001H12.8335C13.4788 11.25 14.0002 11.7527 14.0002 12.375C14.0002 12.9973 13.4788 13.5 12.8335 13.5H10.5001H9.91677C9.59594 13.5 9.33344 13.7531 9.33344 14.0625C9.33344 14.3719 9.59594 14.625 9.91677 14.625H14.3137L18.6778 11.5242C19.3268 11.0637 20.2382 11.1973 20.7159 11.823ZM7.05841 13.5H7.0256C7.03654 13.5 7.04747 13.5 7.05841 13.5Z" fill="#4ABA6F"/>
</svg>
