<svg width="21" height="20" viewBox="0 0 21 20" fill="none" xmlns="http://www.w3.org/2000/svg">
<path d="M1.95234 11.7963L9.36387 19.5021C9.67148 19.8219 10.0775 20 10.5 20C10.9225 20 11.3285 19.8219 11.6361 19.5021L19.0477 11.7963C20.2945 10.5036 21 8.69017 21 6.79454V6.52961C21 3.33673 18.9287 0.614326 16.1027 0.0890309C14.2324 -0.258121 12.3293 0.422479 10.9922 1.91158L10.5 2.45971L10.0078 1.91158C8.6707 0.422479 6.76758 -0.258121 4.89727 0.0890309C2.07129 0.614326 0 3.33673 0 6.52961V6.79454C0 8.69017 0.705469 10.5036 1.95234 11.7963Z" fill="#FF006B"/>
</svg>
