<svg width="49" height="23" viewBox="0 0 49 23" fill="none" xmlns="http://www.w3.org/2000/svg">
<mask id="mask0_43_571" style="mask-type:luminance" maskUnits="userSpaceOnUse" x="0" y="6" width="45" height="15">
<path d="M22.9483 11.2504C22.9233 13.2201 24.7082 14.3193 26.0528 14.9728C27.4343 15.6434 27.8983 16.0734 27.8931 16.673C27.8825 17.5908 26.791 17.9958 25.7694 18.0115C23.9871 18.0392 22.9509 17.5316 22.127 17.1477L21.485 20.1443C22.3116 20.5243 23.8421 20.8557 25.4293 20.8701C29.1546 20.8701 31.5921 19.0358 31.6053 16.1917C31.6198 12.5824 26.5999 12.3825 26.6341 10.7691C26.646 10.28 27.114 9.75797 28.1396 9.62517C28.6471 9.55811 30.0484 9.50683 31.6369 10.2366L32.2604 7.33726C31.4062 7.02695 30.3081 6.72978 28.9411 6.72978C25.4345 6.72978 22.9681 8.58904 22.9483 11.2504ZM38.2519 6.97961C37.5717 6.97961 36.9983 7.37539 36.7425 7.98287L31.4207 20.6571H35.1435L35.8843 18.6151H40.4336L40.8634 20.6571H44.1445L41.2813 6.97961H38.2519ZM38.7726 10.6745L39.847 15.8104H36.9047L38.7726 10.6745ZM18.4346 6.97961L15.5002 20.6571H19.0476L21.9807 6.97961H18.4346ZM13.1866 6.97961L9.4942 16.289L8.00063 8.37339C7.8253 7.48979 7.13322 6.97961 6.36468 6.97961H0.328394L0.244019 7.37671C1.48318 7.64494 2.89107 8.07755 3.74398 8.54039C4.26601 8.82309 4.41497 9.07029 4.58634 9.7422L7.41532 20.6571H11.1644L16.912 6.97961H13.1866Z" fill="white"/>
</mask>
<g mask="url(#mask0_43_571)">
<path d="M-4.35315 8.41865L38.9018 -7.4705L48.7422 19.1819L5.48762 35.071" fill="url(#paint0_linear_43_571)"/>
</g>
<defs>
<linearGradient id="paint0_linear_43_571" x1="4.22074" y1="20.4404" x2="41.1968" y2="6.78788" gradientUnits="userSpaceOnUse">
<stop stop-color="#222357"/>
<stop offset="1" stop-color="#254AA5"/>
</linearGradient>
</defs>
</svg>
