<svg width="20" height="23" viewBox="0 0 20 23" fill="none" xmlns="http://www.w3.org/2000/svg">
<rect width="20" height="23" fill="white"/>
<path d="M0.000244141 3.59378V10.3096C0.000244141 11.0733 0.299351 11.8055 0.835066 12.3446L8.69221 20.2508C9.80828 21.3739 11.6163 21.3739 12.7324 20.2508L18.6922 14.2537C19.8083 13.1307 19.8083 11.3114 18.6922 10.1883L10.8351 2.28206C10.2994 1.743 9.57167 1.44202 8.81274 1.44202H2.1431C0.960066 1.43753 0.000244141 2.40335 0.000244141 3.59378ZM5.00024 7.90628C4.21007 7.90628 3.57167 7.2639 3.57167 6.46878C3.57167 5.67367 4.21007 5.03128 5.00024 5.03128C5.79042 5.03128 6.42882 5.67367 6.42882 6.46878C6.42882 7.2639 5.79042 7.90628 5.00024 7.90628Z" fill="#FF0000"/>
</svg>
