<svg width="31" height="31" viewBox="0 0 31 31" fill="none" xmlns="http://www.w3.org/2000/svg">
<path d="M26.2816 5.25166C23.4914 2.45478 19.7756 0.916504 15.8267 0.916504C7.67577 0.916504 1.04318 7.54909 1.04318 15.7C1.04318 18.3037 1.72242 20.8476 3.01431 23.0917L0.916656 30.7498L8.75456 28.6921C10.9122 29.8708 13.3428 30.4901 15.82 30.4901H15.8267C23.9709 30.4901 30.75 23.8575 30.75 15.7066C30.75 11.7577 29.0719 8.04853 26.2816 5.25166ZM15.8267 27.9996C13.6158 27.9996 11.4515 27.4069 9.56699 26.2881L9.12082 26.0218L4.47268 27.2404L5.7113 22.7055L5.41829 22.2393C4.18634 20.2815 3.54039 18.0241 3.54039 15.7C3.54039 8.92755 9.05423 3.41371 15.8333 3.41371C19.1163 3.41371 22.1995 4.69228 24.5169 7.01635C26.8344 9.34042 28.2594 12.4236 28.2528 15.7066C28.2528 22.4857 22.5991 27.9996 15.8267 27.9996ZM22.5658 18.7965C22.1995 18.6101 20.3816 17.7177 20.0419 17.5979C19.7023 17.4713 19.4559 17.4114 19.2095 17.7843C18.9632 18.1572 18.2573 18.983 18.0375 19.236C17.8244 19.4824 17.6047 19.5157 17.2384 19.3293C15.0675 18.2438 13.6424 17.3914 12.2107 14.9342C11.8311 14.2816 12.5903 14.3282 13.2962 12.9164C13.416 12.67 13.3561 12.4569 13.2629 12.2705C13.1696 12.084 12.4305 10.2661 12.1241 9.52688C11.8245 8.80768 11.5181 8.90757 11.2917 8.89425C11.0786 8.88094 10.8322 8.88094 10.5858 8.88094C10.3395 8.88094 9.9399 8.97417 9.60028 9.34042C9.26066 9.71334 8.30839 10.6057 8.30839 12.4236C8.30839 14.2416 9.63358 15.9996 9.81338 16.246C9.99984 16.4924 12.4171 20.2216 16.1263 21.8265C18.4704 22.8387 19.3893 22.9252 20.5614 22.7521C21.2739 22.6456 22.7456 21.8598 23.0519 20.9941C23.3582 20.1284 23.3582 19.3892 23.265 19.236C23.1784 19.0695 22.9321 18.9763 22.5658 18.7965Z" fill="#434343"/>
</svg>
